<svg width="28" height="45" viewBox="0 0 28 45" fill="none" xmlns="http://www.w3.org/2000/svg">
<g clip-path="url(#clip0_12802_572)">
<path d="M26.2175 7.10239C25.8932 6.60575 25.4194 6.59149 24.8795 6.57523C24.8183 6.57339 24.7563 6.57153 24.6936 6.56893C24.6458 6.56673 24.5931 6.56758 24.538 6.56846C24.319 6.57198 24.0629 6.57609 23.9339 6.39212C23.7843 6.17883 23.7985 5.76663 23.8102 5.42635C23.8139 5.31882 23.8173 5.21841 23.8153 5.1338C23.7943 4.34332 23.7504 3.50363 23.4453 3.22292C23.2152 3.01231 22.5268 3.04149 21.892 3.0684C21.6862 3.07712 21.486 3.0856 21.3089 3.0856H7.79596C7.52389 3.0856 7.23869 3.06345 6.95847 3.04168C6.41245 2.99927 5.88533 2.95832 5.511 3.0856C4.96775 3.27123 4.93096 4.24667 4.89633 5.16519L4.89446 5.21461C4.86538 5.97288 4.67746 6.55799 4.05465 6.49906C3.33029 6.43161 2.6095 6.41035 2.28199 7.06594C1.89519 7.84161 1.97496 8.65358 2.11785 10.1079C2.13826 10.3157 2.15996 10.5365 2.18177 10.7723H26.4264C26.4403 10.6 26.455 10.4299 26.4696 10.2625C26.5831 8.95406 26.682 7.81402 26.2175 7.10239Z" fill="#8047F8"/>
<path fill-rule="evenodd" clip-rule="evenodd" d="M4.06987 12.2147C4.44852 17.3395 4.82304 22.4701 5.19757 27.6009L5.1978 27.604C5.40115 30.3898 5.60451 33.1757 5.80853 35.9606H6.58212C6.63483 36.3965 6.69515 36.9347 6.75874 37.5021C6.88783 38.6539 7.03044 39.9264 7.15034 40.7083H7.2359C8.02387 40.42 13.4712 38.0916 13.4736 28.8218C13.4726 28.7954 13.4735 28.7689 13.4762 28.7427H12.1304C12.0653 28.7421 12.0021 28.7203 11.9507 28.6808C11.8993 28.6413 11.8624 28.5861 11.8458 28.5238C11.7146 28.1999 11.6089 27.8664 11.5295 27.5264C10.7378 27.9736 10.1091 28.6564 9.73296 29.4775C9.37594 28.6365 9.32921 27.6983 9.60093 26.8267C9.87266 25.9551 10.4456 25.2057 11.2195 24.7093C11.2295 22.0043 12.2423 19.3968 14.0661 17.3804L14.0946 17.3553C14.1476 17.3095 14.2155 17.284 14.2859 17.2834C14.3266 17.2838 14.3668 17.2925 14.4039 17.309C14.4415 17.3257 14.4751 17.35 14.5026 17.3804C16.3478 19.3996 17.3552 22.0321 17.3239 24.7531C18.1123 25.2356 18.6969 25.9845 18.9691 26.8608C19.2413 27.7371 19.1827 28.6813 18.8042 29.5181C18.4301 28.6957 17.8008 28.0123 17.0076 27.5671C16.9592 27.8966 16.8699 28.219 16.7419 28.527C16.6977 28.6583 16.6091 28.7427 16.5205 28.7427H15.0853C15.0876 28.7584 15.0892 28.7742 15.0901 28.7901L15.0907 28.7937V28.8014C15.0912 28.815 15.0912 28.8287 15.0907 28.8424C15.1104 38.3783 20.902 40.5428 21.3902 40.7083H21.5572C21.5998 39.9572 21.7386 38.9208 21.8739 37.9104C21.9671 37.2142 22.0587 36.5302 22.116 35.9606H22.8985C23.149 32.4527 23.4066 28.9546 23.6642 25.4564L23.6644 25.4545L23.6645 25.4535C23.994 20.9789 24.3235 16.5042 24.6381 12.0087H4.11998C4.06092 12.0202 4.06495 12.1169 4.06987 12.2147ZM14.2859 17.2834L14.2844 17.2834H14.2875L14.2859 17.2834Z" fill="#8047F8"/>
<path d="M33.3088 8.69821C33.3088 7.43316 33.7446 6.45274 34.6162 5.75696C35.5037 5.04537 36.8349 4.68958 38.6099 4.68958C39.7827 4.68958 40.7811 4.80027 41.6052 5.02165V8.29498C40.7177 8.02615 39.8381 7.89174 38.9665 7.89174C38.1107 7.89174 37.556 7.99453 37.3025 8.2001C37.0489 8.38985 36.9221 8.67449 36.9221 9.05401V17.0238C36.9221 17.7829 37.5164 18.1624 38.705 18.1624C39.9094 18.1624 40.8999 18.0438 41.6765 17.8066V21.0088C40.8207 21.246 39.7827 21.3646 38.5624 21.3646C36.7874 21.3646 35.4641 21.0167 34.5925 20.3209C33.7367 19.6251 33.3088 18.6447 33.3088 17.3796V8.69821Z" fill="#403937"/>
<path d="M48.6205 10.9516C48.6205 10.3507 48.2877 10.0502 47.6221 10.0502C46.9564 10.0502 46.6236 10.3507 46.6236 10.9516V17.5457C46.6236 18.1466 46.9564 18.447 47.6221 18.447C48.2877 18.447 48.6205 18.1466 48.6205 17.5457V10.9516ZM43.1054 10.833C43.1054 9.63119 43.4778 8.69821 44.2227 8.03406C44.9834 7.35409 46.1165 7.01411 47.6221 7.01411C49.1276 7.01411 50.2528 7.35409 50.9977 8.03406C51.7584 8.69821 52.1387 9.63119 52.1387 10.833V17.6643C52.1387 18.8661 51.7584 19.807 50.9977 20.4869C50.2528 21.1511 49.1276 21.4832 47.6221 21.4832C46.1165 21.4832 44.9834 21.1511 44.2227 20.4869C43.4778 19.807 43.1054 18.8661 43.1054 17.6643V10.833Z" fill="#403937"/>
<path d="M54.4492 7.08527C54.4492 4.41284 55.8597 3.07663 58.6806 3.07663C59.0451 3.07663 59.4809 3.11617 59.9881 3.19523V5.94672C59.7345 5.9151 59.4968 5.89928 59.2749 5.89928C58.4667 5.89928 58.0626 6.2788 58.0626 7.03783V7.25131H59.9881V10.0502H58.0626V21.246H54.4492V10.0502H53.0942V7.25131H54.4492V7.08527Z" fill="#403937"/>
<path d="M61.4601 7.08527C61.4601 4.41284 62.8705 3.07663 65.6915 3.07663C66.056 3.07663 66.4918 3.11617 66.9989 3.19523V5.94672C66.7454 5.9151 66.5076 5.89928 66.2858 5.89928C65.4775 5.89928 65.0734 6.2788 65.0734 7.03783V7.25131H66.9989V10.0502H65.0734V21.246H61.4601V10.0502H60.1051V7.25131H61.4601V7.08527Z" fill="#403937"/>
<path d="M67.8291 17.261V10.833C67.8291 9.63119 68.2015 8.69821 68.9464 8.03406C69.6912 7.35409 70.8164 7.01411 72.322 7.01411C75.2221 7.01411 76.6722 8.28707 76.6722 10.833V15.6481H71.276V16.9764C71.276 17.4508 71.4028 17.7908 71.6564 17.9964C71.9258 18.1861 72.5042 18.281 73.3917 18.281C74.295 18.281 75.2776 18.1229 76.3394 17.8066V20.9376C75.2301 21.2381 74.0415 21.3883 72.7736 21.3883C69.4773 21.3883 67.8291 20.0125 67.8291 17.261ZM71.276 12.9203H73.3679V10.8804C73.3679 10.2795 73.0193 9.97908 72.322 9.97908C71.6247 9.97908 71.276 10.2795 71.276 10.8804V12.9203Z" fill="#403937"/>
<path d="M78.09 17.261V10.833C78.09 9.63119 78.4624 8.69821 79.2073 8.03406C79.9521 7.35409 81.0773 7.01411 82.5829 7.01411C85.483 7.01411 86.9331 8.28707 86.9331 10.833V15.6481H81.5369V16.9764C81.5369 17.4508 81.6637 17.7908 81.9173 17.9964C82.1867 18.1861 82.7651 18.281 83.6526 18.281C84.5559 18.281 85.5385 18.1229 86.6003 17.8066V20.9376C85.491 21.2381 84.3024 21.3883 83.0345 21.3883C79.7382 21.3883 78.09 20.0125 78.09 17.261ZM81.5369 12.9203H83.6288V10.8804C83.6288 10.2795 83.2802 9.97908 82.5829 9.97908C81.8856 9.97908 81.5369 10.2795 81.5369 10.8804V12.9203Z" fill="#403937"/>
<path d="M39.0305 29.9797C39.0305 28.8119 38.4128 28.2281 37.1775 28.2281H35.2075V38.874H37.1775C38.4128 38.874 39.0305 38.2771 39.0305 37.0834V29.9797ZM33.8226 27.0214H37.2555C38.2958 27.0214 39.0825 27.2874 39.6156 27.8194C40.1488 28.3513 40.4154 29.065 40.4154 29.9602V37.1224C40.4154 38.0436 40.1553 38.7702 39.6351 39.3022C39.115 39.8341 38.3348 40.1001 37.2945 40.1001H33.8226V27.0214Z" fill="#403937"/>
<path d="M42.6944 37.2781V31.8675C42.6944 30.9463 42.9545 30.2132 43.4746 29.6683C44.0078 29.1104 44.8075 28.8314 45.8737 28.8314C46.94 28.8314 47.7267 29.1104 48.2339 29.6683C48.754 30.2132 49.0141 30.9463 49.0141 31.8675V35.254H44.0598V37.2197C44.0598 37.8036 44.2418 38.2382 44.6059 38.5237C44.97 38.8091 45.5357 38.9518 46.3029 38.9518C47.0701 38.9518 47.8633 38.8351 48.6825 38.6015V39.886C48.0323 40.0936 47.2586 40.1974 46.3614 40.1974C43.9167 40.1974 42.6944 39.2243 42.6944 37.2781ZM44.0598 34.1057H47.6877V31.8675C47.6877 30.6479 47.0831 30.0381 45.8737 30.0381C44.6644 30.0381 44.0598 30.6479 44.0598 31.8675V34.1057Z" fill="#403937"/>
<path d="M51.3849 26.0872H52.7697V40.1001H51.3849V26.0872Z" fill="#403937"/>
<path d="M56.1438 27.7804C55.5847 27.7804 55.3051 27.482 55.3051 26.8852C55.3051 26.2883 55.5847 25.9899 56.1438 25.9899C56.716 25.9899 57.002 26.2883 57.002 26.8852C57.002 27.482 56.716 27.7804 56.1438 27.7804ZM55.4611 29.1039H56.846V40.1001H55.4611V29.1039Z" fill="#403937"/>
<path d="M63.9846 29.026H65.3889L62.9313 40.1001H60.9808L58.5231 29.026H59.947L61.0198 34.1057L61.9755 39.127C62.3656 36.9732 63.0353 33.6062 63.9846 29.026Z" fill="#403937"/>
<path d="M66.8663 37.2781V31.8675C66.8663 30.9463 67.1264 30.2132 67.6465 29.6683C68.1796 29.1104 68.9794 28.8314 70.0456 28.8314C71.1119 28.8314 71.8986 29.1104 72.4058 29.6683C72.9259 30.2132 73.186 30.9463 73.186 31.8675V35.254H68.2317V37.2197C68.2317 37.8036 68.4137 38.2382 68.7778 38.5237C69.1419 38.8091 69.7075 38.9518 70.4747 38.9518C71.2419 38.9518 72.0352 38.8351 72.8544 38.6015V39.886C72.2042 40.0936 71.4305 40.1974 70.5333 40.1974C68.0886 40.1974 66.8663 39.2243 66.8663 37.2781ZM68.2317 34.1057H71.8596V31.8675C71.8596 30.6479 71.255 30.0381 70.0456 30.0381C68.8363 30.0381 68.2317 30.6479 68.2317 31.8675V34.1057Z" fill="#403937"/>
<path d="M79.1457 28.9676H79.6333V30.2911H78.9701C78.502 30.2911 78.0794 30.4143 77.7023 30.6609C77.5853 30.7387 77.3317 30.9139 76.9416 31.1864V40.1001H75.5567V29.026H76.8831V29.8629C76.9221 29.837 77.0196 29.7656 77.1757 29.6488C77.3447 29.5321 77.4422 29.4672 77.4682 29.4542C77.5073 29.4283 77.5918 29.3764 77.7218 29.2985C77.8649 29.2207 77.9689 29.1752 78.0339 29.1623C78.1119 29.1363 78.2159 29.1039 78.346 29.065C78.541 29.0001 78.8076 28.9676 79.1457 28.9676Z" fill="#403937"/>
<path d="M85.5668 29.026H86.9517L83.9089 43H82.5826L83.1872 40.1001H82.5045L80.0859 29.026H81.4903L82.6606 34.5339L83.5188 39.127C83.7789 37.596 84.0649 36.0649 84.377 34.5339L85.5668 29.026Z" fill="#403937"/>
</g>
<defs>
<clipPath id="clip0_12802_572">
<rect width="28" height="45" fill="white"/>
</clipPath>
</defs>
</svg>
